<?xml version="1.0"?>
<svg version="1.1" xmlns="http://www.w3.org/2000/svg" width="400px" height="200px" style="border: dashed 2px #aaa"><path fill="#f4f2f5" d="M54.16259765625,175.75927734375q0-0.4541015625,0.302734375-3.216552734375t0.794677734375-6.73583984375t1.097412109375-8.55224609375t1.0595703125-8.665771484375t0.794677734375-7.18994140625t0.340576171875-4.16259765625q-0.60546875-0.302734375-1.475830078125-0.870361328125t-0.870361328125-1.324462890625q0-1.0595703125,1.021728515625-1.702880859375t1.778564453125-0.946044921875q0.302734375-3.85986328125,0.7568359375-10.7470703125t1.400146484375-14.871826171875t2.64892578125-16.1962890625t4.503173828125-14.90966796875t6.73583984375-10.936279296875t9.6875-4.23828125t9.5361328125,3.6328125t6.168212890625,9.46044921875t3.6328125,12.94189453125t1.89208984375,14.15283203125t0.794677734375,13.1689453125t0.302734375,9.8388671875q0.1513671875,2.34619140625,1.13525390625,3.140869140625t2.156982421875,1.097412109375t2.119140625,0.68115234375t0.946044921875,1.89208984375q0,1.74072265625-2.119140625,2.421875t-3.330078125,0.83251953125q0.7568359375,9.46044921875,2.081298828125,18.6181640625t3.519287109375,18.466796875q0.302734375,1.74072265625,0.83251953125,3.519287109375t0.52978515625,3.443603515625q0,1.2109375-0.83251953125,2.005615234375t-2.156982421875,1.248779296875t-2.64892578125,0.60546875t-2.232666015625,0.1513671875q-3.40576171875,0-5.751953125-1.28662109375t-3.10302734375-4.91943359375q-2.04345703125-9.76318359375-4.01123046875-20.51025390625q-1.6650390625-9.30908203125-1.6650390625-18.08837890625q0-1.3623046875,0.07568359375-2.724609375q-6.357421875,0-12.79052734375,0.302734375t-12.33642578125,2.2705078125q-0.1513671875,2.04345703125-0.7568359375,7.7197265625t-1.3623046875,12.18505859375t-1.551513671875,12.449951171875t-0.946044921875,8.438720703125q-0.1513671875,1.0595703125-1.551513671875,2.005615234375t-3.02734375,1.021728515625t-2.8759765625-1.021728515625t-1.248779296875-3.897705078125z M68.3154296875,129.89501953125q5.9033203125-1.3623046875,11.844482421875-1.58935546875t11.995849609375-0.52978515625q-0.302734375-1.89208984375-0.1513671875-3.897705078125t0.1513671875-4.049072265625q0-4.46533203125-0.22705078125-10.36865234375t-0.68115234375-11.9580078125t-1.173095703125-11.920166015625t-1.627197265625-10.4443359375t-1.929931640625-7.303466796875t-2.232666015625-2.724609375q-2.34619140625,0.1513671875-4.427490234375,4.049072265625t-3.7841796875,9.91455078125t-3.10302734375,13.4716796875t-2.34619140625,14.569091796875t-1.551513671875,13.24462890625t-0.7568359375,9.5361328125z M130.50236816406,149.6484375l0-2.19482421875q0-2.724609375,0.1513671875-5.146484375q0.1513671875-3.40576171875,0.1513671875-5.6005859375q0-1.2109375,0.1513671875-2.762451171875t0.7568359375-2.459716796875q0.7568359375-0.7568359375,1.778564453125-1.551513671875t2.232666015625-0.794677734375q3.85986328125,0,6.0546875,0.870361328125t2.34619140625,3.594970703125l0.302734375,2.34619140625q1.3623046875-3.25439453125,3.6328125-8.060302734375t5.260009765625-9.15771484375t6.73583984375-7.4169921875t7.908935546875-3.065185546875q3.85986328125,0,6.357421875,3.6328125t3.973388671875,9.271240234375t2.081298828125,12.5634765625t0.83251953125,13.585205078125t0.302734375,12.147216796875t0.52978515625,8.287353515625q0.302734375,2.34619140625,1.021728515625,4.957275390625t0.718994140625,4.805908203125q0,0.60546875-0.870361328125,1.173095703125t-1.854248046875,0.946044921875t-2.005615234375,0.60546875t-1.475830078125,0.22705078125q-2.95166015625,0-4.200439453125-4.427490234375t-1.551513671875-11.087646484375t-0.302734375-14.417724609375t-0.52978515625-14.417724609375t-2.156982421875-11.087646484375t-5.184326171875-4.578857421875q-3.25439453125,0-6.73583984375,4.200439453125t-5.97900390625,11.163330078125q-2.421875,6.962890625-3.330078125,15.81787109375q-0.302734375,2.80029296875-0.302734375,5.6005859375q0,6.13037109375,1.28662109375,12.2607421875q0.1513671875,1.0595703125-0.870361328125,1.58935546875t-2.535400390625,0.83251953125t-3.065185546875,0.37841796875t-2.384033203125,0.07568359375q-2.95166015625,0-4.730224609375-2.081298828125t-2.762451171875-5.335693359375t-1.324462890625-7.303466796875t-0.416259765625-7.984619140625z M199.27377929688,179.99755859375l1.58935546875-1.89208984375q-0.302734375-12.71484375-0.68115234375-25.35400390625t-0.37841796875-25.126953125q0-15.51513671875,1.854248046875-30.008544921875t3.670654296875-29.705810546875q0.1513671875-0.908203125,0.870361328125-1.475830078125t1.778564453125-0.946044921875t2.156982421875-0.52978515625t2.005615234375-0.1513671875q1.2109375,0,3.02734375,0.4541015625t3.6328125,2.64892578125q0,0.7568359375,0.113525390625,1.324462890625t0.113525390625,1.324462890625q0,5.751953125-1.551513671875,12.33642578125t-2.081298828125,12.63916015625q-0.60546875,7.4169921875-0.83251953125,14.6826171875t-0.22705078125,14.75830078125l0.1513671875,6.66015625q1.513671875-1.89208984375,4.31396484375-4.84375t6.0546875-5.714111328125t6.5087890625-4.730224609375t5.9033203125-1.9677734375q4.01123046875,0,5.562744140625,2.2705078125t1.551513671875,5.97900390625q0,3.40576171875-1.475830078125,7.1142578125t-3.85986328125,7.227783203125t-5.411376953125,6.319580078125t-5.97900390625,4.16259765625q4.01123046875,4.9951171875,8.211669921875,9.5361328125t9.195556640625,8.55224609375l0,1.74072265625q-0.1513671875,0.7568359375-0.946044921875,1.13525390625t-1.74072265625,0.60546875t-1.854248046875,0.340576171875t-1.513671875,0.113525390625q-3.70849609375,0-7.152099609375-2.19482421875t-6.43310546875-5.37353515625t-5.638427734375-6.73583984375t-4.84375-6.2060546875q0.4541015625,8.70361328125,1.021728515625,17.369384765625t0.567626953125,17.369384765625q0,1.0595703125-0.946044921875,1.778564453125t-2.19482421875,1.097412109375t-2.535400390625,0.52978515625t-2.119140625,0.1513671875q-4.46533203125,0-6.319580078125-1.627197265625t-3.140869140625-5.638427734375z M214.78891601563,144.3505859375q1.89208984375,0,4.503173828125-1.627197265625t5.411376953125-4.049072265625t5.22216796875-5.108642578125t3.897705078125-5.108642578125t1.475830078125-3.897705078125t-2.04345703125-1.324462890625q-0.7568359375,0-3.10302734375,2.19482421875t-5.22216796875,5.37353515625t-5.751953125,6.88720703125t-4.3896484375,6.66015625z M260.55251464844,147.45361328125q0-6.962890625,1.627197265625-13.660888671875t2.762451171875-13.358154296875q0.302734375-1.74072265625,2.384033203125-2.156982421875t3.519287109375-0.416259765625q2.49755859375,0,4.01123046875,0.7568359375q0.60546875,0.302734375,1.13525390625,0.68115234375t0.52978515625,0.98388671875q0,6.5087890625-1.551513671875,12.71484375t-1.551513671875,13.1689453125q0,2.34619140625,0.340576171875,4.427490234375t0.643310546875,4.124755859375l0.4541015625,2.19482421875q0,0.60546875,0.07568359375,1.0595703125t0.22705078125,1.0595703125q0,1.3623046875-1.929931640625,1.854248046875t-3.367919921875,0.491943359375q-2.19482421875,0-4.049072265625-0.870361328125t-2.913818359375-2.989501953125l-1.0595703125-2.19482421875q-0.908203125-1.74072265625-0.908203125-3.897705078125t-0.37841796875-3.973388671875z M265.39626464844,101.89208984375l0-1.43798828125q0-3.55712890625,1.778564453125-6.357421875t5.335693359375-2.80029296875q0.4541015625,0,0.870361328125,0.07568359375t0.870361328125,0.07568359375q0.908203125,0.1513671875,2.384033203125,0.718994140625t1.475830078125,1.778564453125l0,0.1513671875q-0.302734375,0.60546875-0.37841796875,1.248779296875t-0.37841796875,1.097412109375l0.1513671875-0.1513671875q-0.908203125,2.34619140625-1.475830078125,3.7841796875t-1.248779296875,2.308349609375t-1.702880859375,1.248779296875t-2.913818359375,0.37841796875q-0.302734375,0-1.0595703125-0.07568359375t-1.627197265625-0.302734375t-1.475830078125-0.60546875t-0.60546875-1.13525390625z M290.4982421875,101.2109375q0-1.0595703125,2.2705078125-1.81640625t5.146484375-1.248779296875t5.562744140625-0.718994140625t3.670654296875-0.37841796875q0-2.04345703125,0.1513671875-4.124755859375t0.83251953125-3.70849609375t2.156982421875-2.611083984375t4.124755859375-0.98388671875q2.19482421875,0,3.330078125,0.52978515625t2.421875,2.19482421875q0.302734375,0.908203125,0.302734375,1.74072265625l0,2.535400390625t-0.1513671875,2.611083984375q2.80029296875-0.302734375,5.562744140625-0.718994140625t5.562744140625-0.416259765625q2.04345703125,0,2.80029296875,0.07568359375t1.513671875,1.81640625q0.60546875,1.74072265625-1.475830078125,2.64892578125t-4.9951171875,1.3623046875t-5.789794921875,0.68115234375t-3.4814453125,0.22705078125q-0.908203125,13.017578125-1.854248046875,25.80810546875t-0.946044921875,25.95947265625q0,5.9033203125,0.37841796875,12.18505859375t2.119140625,11.88232421875q0.4541015625,1.74072265625,1.513671875,3.25439453125t1.0595703125,3.25439453125q0,1.0595703125-0.83251953125,1.6650390625t-2.005615234375,1.021728515625t-2.34619140625,0.491943359375t-1.929931640625,0.07568359375q-4.76806640625,0-7.265625-3.55712890625t-3.594970703125-8.514404296875t-1.173095703125-10.179443359375t-0.07568359375-8.4765625q0-6.66015625,0.264892578125-13.623046875t0.643310546875-13.7744140625t1.0595703125-13.3203125t1.58935546875-12.109375q-2.64892578125,0.302734375-5.184326171875,0.68115234375t-5.184326171875,0.37841796875q-0.60546875,0-1.627197265625-0.07568359375t-1.929931640625-0.37841796875t-1.551513671875-0.83251953125t-0.643310546875-1.513671875z"/><path fill="#" d=""/></svg>
